<?xml version="1.0" encoding="UTF-8"?>
<svg xmlns="http://www.w3.org/2000/svg" width="800px" height="800px" viewBox="0 0 400 400">
<rect width="300" height="120" y="0" fill="darkred"/>
<g>
    <g style="font-size: 20px" transform="scale(1, 1)">
        <rect width="300" height="120" y="20" fill="green"/>
        <rect width="80" height="150" x="16" y="30" fill="red"/>
        <rect width="99.0" height="50" x="50" y="50" fill="blue"/>
        <rect width="90.3" height="50" x="50" y="50" fill="darkgreen"/>
        <text x="3em" y="80px" style="font-style:normal;font-variant:normal;font-weight:normal;font-stretch:normal;font-family:Arial;fill:white;fill-opacity:1">  
            <tspan style="font-size:20px; letter-spacing:0px; word-spacing:0px">WALL  Mg</tspan>
            <tspan style="font-size:30px; letter-spacing:-0.25em;word-spacing:0">MMM</tspan>
        </text>
        
        <circle cx="100" cy="100" r="30" style="fill:blue;stroke:white;stroke-width:5px" />
        <ellipse cx="200" cy="100" rx="15" ry="35" style="fill:blue;stroke:red;stroke-width:5px" />
        
        <rect x="59" y="100" width="100" height="50" style="stroke:darkred;stroke-width:5px;stroke-linejoin:round;fill:none" />
        
        <!-- <polyline points="50,50 150,100 200,40" style="stroke:black;stroke-width:30px;stroke-linejoin:round;stroke-linecap:round;fill:none" /> -->
        
        <!-- <polyline points="50,50 150,100 150,40 200,40 180,30 250,30 250,100" style="stroke:black;stroke-width:5px;stroke-linejoin:round;stroke-linecap:round;fill:none" /> -->
        <!-- <polyline points="50,50 150,100 150,40 200,40 180,30 250,30 250,100" transform="translate(30,30)" style="stroke:gray;stroke-width:5px;stroke-linejoin:miter;stroke-linecap:butt;fill:none" /> -->
        <polyline points="50,50 150,100 150,40 200,40 180,30 250,30 250,100" transform="translate(60,60)" style="stroke-miterlimit:4;stroke:magenta;stroke-width:15px;stroke-linejoin:miter;stroke-linecap:round;fill:none" />
    
    
    
    </g>
</g>
</svg>